<?xml version="1.0" encoding="UTF-8" standalone="no"?>
<!-- Created with Inkscape (http://www.inkscape.org/) -->

<svg
   xmlns:dc="http://purl.org/dc/elements/1.1/"
   xmlns:cc="http://creativecommons.org/ns#"
   xmlns:rdf="http://www.w3.org/1999/02/22-rdf-syntax-ns#"
   xmlns:svg="http://www.w3.org/2000/svg"
   xmlns="http://www.w3.org/2000/svg"
   xmlns:sodipodi="http://sodipodi.sourceforge.net/DTD/sodipodi-0.dtd"
   xmlns:inkscape="http://www.inkscape.org/namespaces/inkscape"
   width="256mm"
   height="125mm"
   viewBox="0 0 907.08663 442.91337"
   id="svg2"
   version="1.1"
   inkscape:version="0.91 r13725"
   sodipodi:docname="feature-graphic.svg">
  <defs
     id="defs4" />
  <sodipodi:namedview
     id="base"
     pagecolor="#f44336"
     bordercolor="#666666"
     borderopacity="1.0"
     inkscape:pageopacity="0"
     inkscape:pageshadow="2"
     inkscape:zoom="2"
     inkscape:cx="395.57377"
     inkscape:cy="238.33149"
     inkscape:document-units="px"
     inkscape:current-layer="layer1"
     showgrid="false"
     inkscape:window-width="2560"
     inkscape:window-height="1345"
     inkscape:window-x="1080"
     inkscape:window-y="172"
     inkscape:window-maximized="1" />
  <metadata
     id="metadata7">
    <rdf:RDF>
      <cc:Work
         rdf:about="">
        <dc:format>image/svg+xml</dc:format>
        <dc:type
           rdf:resource="http://purl.org/dc/dcmitype/StillImage" />
        <dc:title></dc:title>
      </cc:Work>
    </rdf:RDF>
  </metadata>
  <g
     inkscape:label="Layer 1"
     inkscape:groupmode="layer"
     id="layer1"
     transform="translate(0,-609.44882)">
    <path
       style="fill:#ffffff;fill-opacity:1"
       d="m 112.83714,847.97585 -91.946539,-107.1476 7.14945,-8.49663 c 3.93221,-4.67317 7.66933,-10.05617 8.30468,-11.96229 0.63538,-1.90611 6.00167,-4.45291 11.92511,-5.65951 l 10.76989,-2.19385 1.55047,-10.71153 1.55047,-10.7115 9.3028,-1.98227 c 5.11654,-1.09026 15.44312,-2.14737 22.94794,-2.34918 l 13.645139,-0.36687 15.81375,7.31374 c 8.69756,4.02253 19.63698,8.87013 24.30984,10.77243 l 8.4961,3.45872 13.84828,21.60475 c 7.61658,11.88259 16.8479,23.21006 20.51408,25.17215 l 6.6658,3.5674 10.22512,-1.91823 10.22508,-1.91824 5.11524,-7.80682 c 2.81339,-4.29374 8.54795,-9.11195 12.74351,-10.7071 l 7.62827,-2.90027 3.56809,-7.83113 3.56812,-7.83114 12.67368,-3.25542 c 25.3392,-6.5088 41.93671,-12.71997 49.14796,-18.39236 l 7.36627,-5.79431 24.49879,-6.27602 24.49881,-6.27601 2.25993,3.65665 c 1.24298,2.01118 5.94759,14.15698 10.45474,26.9907 4.50712,12.83374 10.85885,29.87214 14.11493,37.86313 3.25607,7.99098 5.92012,15.11792 5.92012,15.83762 0,0.7197 -13.2565,6.55451 -29.45888,12.96625 -16.20239,6.41174 -29.46307,12.5413 -29.46819,13.62126 -0.006,1.07996 5.03486,14.99429 11.19996,30.92073 l 11.20926,28.95712 -2.67239,2.59229 c -1.46981,1.42575 -19.14173,11.88954 -39.27089,23.25292 l -36.59854,20.66063 -4.48885,-1.72254 c -2.46887,-0.9474 -4.48885,-3.16178 -4.48885,-4.92081 0,-7.62793 -5.35439,-2.23485 -7.98069,8.0384 l -2.87259,11.23664 -31.00935,23.89785 -31.00935,23.8979 -91.94657,-107.14765 z"
       id="path7486"
       inkscape:connector-curvature="0" />
    <text
       xml:space="preserve"
       style="font-style:normal;font-variant:normal;font-weight:normal;font-stretch:normal;font-size:90px;line-height:125%;font-family:'DejaVu Sans';-inkscape-font-specification:'DejaVu Sans';letter-spacing:0px;word-spacing:0px;fill:#ffffff;fill-opacity:1;stroke:none;stroke-width:1px;stroke-linecap:butt;stroke-linejoin:miter;stroke-opacity:1;"
       x="312.5"
       y="1010.8622"
       id="text7503"
       sodipodi:linespacing="125%"><tspan
         sodipodi:role="line"
         id="tspan7505"
         x="312.5"
         y="1010.8622">Ride Ottawa</tspan></text>
    <path
       style="fill:none;fill-rule:evenodd;stroke:#000000;stroke-width:9.80000019;stroke-linecap:round;stroke-linejoin:round;stroke-miterlimit:4;stroke-dasharray:none;stroke-opacity:1"
       d="m 245.5,786.86219 0,-47.5 44.5,-47.75 230.5,0"
       id="path7507"
       inkscape:connector-curvature="0"
       sodipodi:nodetypes="cccc" />
    <path
       style="fill:none;fill-rule:evenodd;stroke:#0000ff;stroke-width:9.8;stroke-linecap:round;stroke-linejoin:round;stroke-opacity:1;stroke-miterlimit:4;stroke-dasharray:none"
       d="m 257,802.86219 44,44 154.5,0 82.75,-82.75 121.75,0"
       id="path7509"
       inkscape:connector-curvature="0" />
    <path
       style="fill:none;fill-rule:evenodd;stroke:#00ff00;stroke-width:9.8;stroke-linecap:round;stroke-linejoin:round;stroke-opacity:1;stroke-miterlimit:4;stroke-dasharray:none"
       d="m 537.5,676.36219 123.5,0 35.75,-35.75 80.25,0 56.875,56.875 0,170.875 -50.9375,50.9375"
       id="path7511"
       inkscape:connector-curvature="0" />
  </g>
</svg>
