<?xml version="1.0" encoding="UTF-8" standalone="no"?>
<!-- Created with Inkscape (http://www.inkscape.org/) -->

<svg
   xmlns:dc="http://purl.org/dc/elements/1.1/"
   xmlns:cc="http://creativecommons.org/ns#"
   xmlns:rdf="http://www.w3.org/1999/02/22-rdf-syntax-ns#"
   xmlns:svg="http://www.w3.org/2000/svg"
   xmlns="http://www.w3.org/2000/svg"
   xmlns:sodipodi="http://sodipodi.sourceforge.net/DTD/sodipodi-0.dtd"
   xmlns:inkscape="http://www.inkscape.org/namespaces/inkscape"
   width="256mm"
   height="125mm"
   viewBox="0 0 907.08663 442.91337"
   id="svg2"
   version="1.1"
   inkscape:version="0.91 r13725"
   sodipodi:docname="feature-graphic.svg">
  <defs
     id="defs4" />
  <sodipodi:namedview
     id="base"
     pagecolor="#f44336"
     bordercolor="#666666"
     borderopacity="1.0"
     inkscape:pageopacity="0"
     inkscape:pageshadow="2"
     inkscape:zoom="2"
     inkscape:cx="395.57377"
     inkscape:cy="238.33149"
     inkscape:document-units="px"
     inkscape:current-layer="layer1"
     showgrid="false"
     inkscape:window-width="2560"
     inkscape:window-height="1345"
     inkscape:window-x="1080"
     inkscape:window-y="172"
     inkscape:window-maximized="1" />
  <metadata
     id="metadata7">
    <rdf:RDF>
      <cc:Work
         rdf:about="">
        <dc:format>image/svg+xml</dc:format>
        <dc:type
           rdf:resource="http://purl.org/dc/dcmitype/StillImage" />
        <dc:title></dc:title>
      </cc:Work>
    </rdf:RDF>
  </metadata>
  <g
     inkscape:label="Layer 1"
     inkscape:groupmode="layer"
     id="layer1"
     transform="translate(0,-609.44882)">
    <path
       style="fill:#ffffff;fill-opacity:1"
       d="m 112.83714,847.97585 -91.946539,-107.1476 7.14945,-8.49663 c 3.93221,-4.67317 7.66933,-10.05617 8.30468,-11.96229 0.63538,-1.90611 6.00167,-4.45291 11.92511,-5.65951 l 10.76989,-2.19385 1.55047,-10.71153 1.55047,-10.7115 9.3028,-1.98227 c 5.11654,-1.09026 15.44312,-2.14737 22.94794,-2.34918 l 13.645139,-0.36687 15.81375,7.31374 c 8.69756,4.02253 19.63698,8.87013 24.30984,10.77243 l 8.4961,3.45872 13.84828,21.60475 c 7.61658,11.88259 16.8479,23.21006 20.51408,25.17215 l 6.6658,3.5674 10.22512,-1.91823 10.22508,-1.91824 5.11524,-7.80682 c 2.81339,-4.29374 8.54795,-9.11195 12.74351,-10.7071 l 7.62827,-2.90027 3.56809,-7.83113 3.56812,-7.83114 12.67368,-3.25542 c 25.3392,-6.5088 41.93671,-12.71997 49.14796,-18.39236 l 7.36627,-5.79431 24.49879,-6.27602 24.49881,-6.27601 2.25993,3.65665 c 1.24298,2.01118 5.94759,14.15698 10.45474,26.9907 4.50712,12.83374 10.85885,29.87214 14.11493,37.86313 3.25607,7.99098 5.92012,15.11792 5.92012,15.83762 0,0.7197 -13.2565,6.55451 -29.45888,12.96625 -16.20239,6.41174 -29.46307,12.5413 -29.46819,13.62126 -0.006,1.07996 5.03486,14.99429 11.19996,30.92073 l 11.20926,28.95712 -2.67239,2.59229 c -1.46981,1.42575 -19.14173,11.88954 -39.27089,23.25292 l -36.59854,20.66063 -4.48885,-1.72254 c -2.46887,-0.9474 -4.48885,-3.16178 -4.48885,-4.92081 0,-7.62793 -5.35439,-2.23485 -7.98069,8.0384 l -2.87259,11.23664 -31.00935,23.89785 -31.00935,23.8979 -91.94657,-107.14765 z"
       id="path7486"
       inkscape:connector-curvature="0" />
    <text
       xml:space="preserve"
       style="font-style:normal;font-variant:normal;font-weight:normal;font-stretch:normal;font-size:90px;line-height:125%;font-family:'DejaVu Sans';-inkscape-font-specification:'DejaVu Sans';letter-spacing:0px;word-spacing:0px;fill:#ffffff;fill-opacity:1;stroke:none;stroke-width:1px;stroke-linecap:butt;stroke-linejoin:miter;stroke-opacity:1;"
       x="312.5"
       y="1010.8622"
       id="text7503"
       sodipodi:linespacing="125%"><tspan
         sodipodi:role="line"
         id="tspan7505"
         x="312.5"
         y="1010.8622">Ride Ottawa</tspan></text>
    <path
       style="fill:none;fill-rule:evenodd;stroke:#000000;stroke-width:9.80000019;stroke-linecap:round;stroke-linejoin:round;stroke-miterlimit:4;stroke-dasharray:none;stroke-opacity:1"
       d="m 245.5,786.86219 0,-47.5 44.5,-47.75 230.5,0"
       id="path7507"
       inkscape:connector-curvature="0"
       sodipodi:nodetypes="cccc" />
    <path
       style="fill:none;fill-rule:evenodd;stroke:#0000ff;stroke-width:9.8;stroke-linecap:round;stroke-linejoin:round;stroke-opacity:1;stroke-miterlimit:4;stroke-dasharray:none"
       d="m 257,802.86219 44,44 154.5,0 82.75,-82.75 121.75,0"
       id="path7509"
       inkscape:connector-curvature="0" />
    <path
       style="fill:none;fill-rule:evenodd;stroke:#00ff00;stroke-width:9.8;stroke-linecap:round;stroke-linejoin:round;stroke-opacity:1;stroke-miterlimit:4;stroke-dasharray:none"
       d="m 537.5,676.36219 123.5,0 35.75,-35.75 80.25,0 56.875,56.875 0,170.875 -50.9375,50.9375"
       id="path7511"
       inkscape:connector-curvature="0" />
    <g
       id="g8359"
       transform="translate(1,1.5)">
      <path
         sodipodi:nodetypes="cccc"
         id="path13358-4"
         style="fill:#ffffff;stroke:none;stroke-width:4.01640129;stroke-opacity:1"
         d="m 710.44569,754.23817 0,37.9953 77.33337,0 0,-37.77666"
         inkscape:connector-curvature="0" />
      <path
         id="path13316"
         style="fill:#c5c5c5;fill-opacity:1;stroke:#808080;stroke-width:4.01640129;stroke-opacity:1"
         d="m 744.19804,694.92393 c 1.73087,-38.64983 55.75569,24.4378 22.05406,16.38672"
         inkscape:connector-curvature="0" />
      <path
         id="path13318"
         style="fill:#ffffff;stroke:#808080;stroke-width:4.01640129;stroke-opacity:1"
         d="m 697.60779,719.52439 c 9.16201,11.99479 -3.55853,29.12895 7.68478,40.08771 8.63908,8.41958 28.95223,5.2904 39.84471,3.59046 54.29171,-8.473 26.17087,-59.03106 0.21247,-67.47153 -8.22358,-2.67372 -23.62648,4.42828 -31.65728,6.7108 -12.40224,3.5258 -17.10264,5.95834 -17.01388,18.25114"
         inkscape:connector-curvature="0" />
      <path
         id="path13320"
         style="fill:#c5c5c5;fill-opacity:1;stroke:#808080;stroke-width:4.01640129;stroke-opacity:1"
         d="m 739.37836,746.9765 c 9.30339,-19.87276 -19.31206,-1.24686 -0.18074,-0.82152"
         inkscape:connector-curvature="0" />
      <path
         id="path13322"
         style="fill:none;stroke:#808080;stroke-width:4.01640129;stroke-opacity:1"
         d="m 750.62429,751.997 c 1.28866,-3.2332 5.26751,-2.22067 5.95311,-2.23894"
         inkscape:connector-curvature="0" />
      <path
         id="path13324"
         style="fill:#c5c5c5;fill-opacity:1;stroke:#3771c8;stroke-width:4.01640129"
         d="m 745.20214,728.70187 c -1.43224,-2.82815 -3.15126,-5.96154 -3.02153,-9.24053 0.44803,-11.34533 17.82639,-12.13516 20.22459,-1.35168 2.33232,10.48883 -11.54174,23.66865 -17.20225,10.59225 z"
         inkscape:connector-curvature="0" />
      <path
         id="path13326"
         style="fill:#c5c5c5;fill-opacity:1;stroke:#3771c8;stroke-width:4.01640129"
         d="m 726.92752,733.78262 c -24.49403,-41.67418 -22.47177,35.36642 0,0 z"
         inkscape:connector-curvature="0" />
      <path
         id="path13328"
         style="fill:#c5c5c5;fill-opacity:1;stroke:#808080;stroke-width:4.01640129;stroke-opacity:1"
         d="m 699.61599,707.97724 c -22.59025,-15.30831 -25.50616,32.13924 3.05226,22.99189"
         inkscape:connector-curvature="0" />
      <path
         id="path13330"
         style="fill:#ffffff;stroke:#808080;stroke-width:4.01640129;stroke-opacity:1"
         d="m 762.07103,709.64405 c -5.22554,-3.16212 -15.19887,-6.63068 -18.99798,-7.79182"
         inkscape:connector-curvature="0" />
      <path
         id="path13332"
         style="fill:#ffffff;stroke:#808080;stroke-width:4.01640129;stroke-opacity:1"
         d="m 710.46027,713.76086 c -9.69258,4.7277 0.10845,0.64732 0,0 z"
         inkscape:connector-curvature="0" />
      <path
         id="path13334"
         style="fill:#f2f2f2;stroke:#808080;stroke-width:4.01640129;stroke-opacity:1"
         d="m 701.02173,735.28877 c 3.40551,-8.67643 -1.80899,-19.89565 -0.3179,-27.09063"
         inkscape:connector-curvature="0" />
      <path
         id="path13336"
         style="fill:none;stroke:#808080;stroke-width:4.01640129;stroke-opacity:1"
         d="m 690.57909,710.96946 c -4.57087,4.71706 -1.57564,9.47509 3.7238,10.81135"
         inkscape:connector-curvature="0" />
      <path
         id="path13338"
         style="fill:none;stroke:#808080;stroke-width:4.01640129;stroke-opacity:1"
         d="m 750.22265,689.76286 c 7.80326,-2.88558 18.54513,11.16861 16.3578,15.16995"
         inkscape:connector-curvature="0" />
      <path
         id="path13340"
         style="fill:#808080;fill-opacity:1;stroke:#ffffff;stroke-width:4.01640129"
         d="m 723.31276,739.08427 c -1.82345,0.1958 -3.32157,-0.94815 -4.51444,-2.18332 -1.99213,-2.06101 -2.71468,-5.32534 -2.39799,-7.89363 1.23002,-10.96659 20.13824,6.3913 7.07589,10.02714"
         inkscape:connector-curvature="0" />
      <path
         id="path13342"
         style="fill:#ffffff"
         d="m 720.90292,729.84654 c -2.89703,2.25461 2.71388,4.24454 1.22781,0.75153 -0.30505,-0.71809 -0.57816,-0.62031 -1.15753,-0.5751"
         inkscape:connector-curvature="0" />
      <path
         id="path13344"
         style="fill:none;stroke:#808080;stroke-width:4.01640129;stroke-opacity:1"
         d="m 726.92752,733.78262 c -24.49403,-41.67418 -22.47177,35.36642 0,0 z"
         inkscape:connector-curvature="0" />
      <path
         id="path13346"
         style="fill:#808080;fill-opacity:1;stroke:#ffffff;stroke-width:4.01640129"
         d="m 756.04643,731.45311 c 1.63106,-0.72063 2.16886,-2.62031 2.39779,-4.45801 0.38296,-3.06733 -1.02559,-6.70217 -2.86671,-9.11743 -7.76229,-10.37356 -12.75388,16.5301 0.30304,13.60757"
         inkscape:connector-curvature="0" />
      <path
         id="path13348"
         style="fill:#ffffff"
         d="m 752.63249,721.59284 c 4.31883,0.48006 -0.13857,5.92158 -0.78079,1.50754 -0.13254,-0.90717 0.20363,-0.97689 0.81794,-1.28746"
         inkscape:connector-curvature="0" />
      <path
         id="path13350"
         sodipodi:nodetypes="cssssssccc"
         style="fill:#c5c5c5;fill-opacity:1;stroke:#808080;stroke-width:4.01640129;stroke-opacity:1"
         d="m 779.7432,759.2466 c 2.5976,-5.97118 -0.28396,-28.26542 3.2336,-39.12577 1.34289,-4.14513 4.12726,-8.03742 8.19125,-9.82312 3.44326,-1.51301 7.31166,-1.27028 9.25861,2.36426 0.9549,1.78236 -2.85506,11.49574 -2.80646,14.03311 0.28777,14.9631 11.68953,40.71426 3.06592,54.30174 -9.31805,14.68276 -23.03406,0.29107 -26.75526,-9.97573 -1.85778,-5.12714 -3.51977,-10.39626 -5.26249,-15.52802 9.7711,-12.09358 10.68544,-20.38524 6.95038,-25.34148 2.15581,-1.74231 1.35795,-0.64881 4.59657,1.71336"
         inkscape:connector-curvature="0" />
      <path
         id="path13352"
         sodipodi:nodetypes="cccssc"
         style="fill:#c5c5c5;fill-opacity:1;stroke:#808080;stroke-width:4.01640129;stroke-opacity:1"
         d="m 699.41517,770.79376 c -1.17319,-2.74843 -9.98498,-23.90763 0.51872,-19.81412 4.61283,12.12713 8.86299,10.8975 13.30091,12.56873 3.63465,11.84638 15.98428,31.42031 -3.15749,37.90479 -4.35378,1.47462 -12.06808,-0.13495 -15.49749,-3.09645 -18.37323,-15.868 -29.2394,-81.1293 6.10132,-28.73735"
         inkscape:connector-curvature="0" />
      <path
         id="path13354"
         style="fill:#c5c5c5;fill-opacity:1;stroke:#808080;stroke-width:4.01640129;stroke-opacity:1"
         d="m 791.99322,809.35121 c -1.83409,20.32098 -2.29618,41.40508 1.54069,61.54734 0.31188,1.63792 3.8678,0.81488 3.27939,3.46254 -0.99646,4.48431 -6.59352,6.6369 -10.64687,7.23012 -6.70036,0.9805 -19.26407,3.28983 -23.53612,-3.90495 -6.82748,-11.49895 -2.21323,-34.98486 -6.42162,-45.71468"
         inkscape:connector-curvature="0" />
      <path
         id="path13356"
         style="fill:#c5c5c5;fill-opacity:1;stroke:#808080;stroke-width:4.01640129;stroke-opacity:1"
         d="m 718.89472,812.86556 c 4.83614,19.82215 8.42882,40.60381 7.63036,61.09148 -0.0643,1.66612 -3.70353,1.38109 -2.72794,3.91177 1.65234,4.2861 7.50725,5.5824 11.60378,5.56613 6.77165,-0.0269 19.53919,0.38804 22.69267,-7.36186 5.04139,-12.38659 -3.01491,-34.92462 -0.44883,-46.16051"
         inkscape:connector-curvature="0" />
      <path
         id="path13358"
         style="fill:#ffffff;stroke:#808080;stroke-width:4.01640129;stroke-opacity:1"
         d="m 721.10374,787.24092 c -24.15665,60.81836 89.83083,50.84363 69.86128,0.21355"
         inkscape:connector-curvature="0" />
      <path
         id="path13360"
         style="fill:#a5bfe6;stroke:#808080;stroke-width:4.01640129;stroke-opacity:1"
         d="m 699.61599,767.29949 c 5.23658,5.97239 8.46959,15.49708 9.12486,21.78697"
         inkscape:connector-curvature="0" />
      <path
         id="path13376"
         style="fill:none;stroke:#808080;stroke-width:4.01640129;stroke-opacity:1"
         d="m 745.20214,728.70187 c -1.43224,-2.82815 -3.15126,-5.96154 -3.02153,-9.24053 0.44803,-11.34533 17.82639,-12.13516 20.22459,-1.35168 2.33232,10.48883 -11.54174,23.66865 -17.20225,10.59225 z"
         inkscape:connector-curvature="0" />
    </g>
  </g>
</svg>
