<?xml version="1.0" encoding="UTF-8" standalone="no"?>
<svg
   xmlns:dc="http://purl.org/dc/elements/1.1/"
   xmlns:cc="http://creativecommons.org/ns#"
   xmlns:rdf="http://www.w3.org/1999/02/22-rdf-syntax-ns#"
   xmlns:svg="http://www.w3.org/2000/svg"
   xmlns="http://www.w3.org/2000/svg"
   xmlns:sodipodi="http://sodipodi.sourceforge.net/DTD/sodipodi-0.dtd"
   xmlns:inkscape="http://www.inkscape.org/namespaces/inkscape"
   height="435.06"
   id="svg2103"
   inkscape:version="0.91 r13725"
   sodipodi:docname="logo_3.svg"
   sodipodi:version="0.32"
   width="355.024"
   inkscape:output_extension="org.inkscape.output.svg.inkscape"
   inkscape:export-filename="/home/john/projects/android/ride-ottawa/icon/logo_3.png"
   inkscape:export-xdpi="105.91643"
   inkscape:export-ydpi="105.91643"
   version="1.1">
  <metadata
     id="metadata3">
    <rdf:RDF>
      <cc:Work
         rdf:about="">
        <dc:title />
        <dc:description>EPS converted from  http://aiga.org</dc:description>
        <dc:subject>
          <rdf:Bag>
            <rdf:li>symbol</rdf:li>
            <rdf:li>mapsym</rdf:li>
          </rdf:Bag>
        </dc:subject>
        <dc:publisher>
          <cc:Agent
             rdf:about="http://www.openclipart.org/">
            <dc:title>Open Clip Art Library</dc:title>
          </cc:Agent>
        </dc:publisher>
        <dc:creator>
          <cc:Agent>
            <dc:title>Jean-Victor Balin</dc:title>
          </cc:Agent>
        </dc:creator>
        <dc:rights>
          <cc:Agent>
            <dc:title>Jean-Victor Balin</dc:title>
          </cc:Agent>
        </dc:rights>
        <dc:date />
        <dc:format>image/svg+xml</dc:format>
        <dc:type
           rdf:resource="http://purl.org/dc/dcmitype/StillImage" />
        <cc:license
           rdf:resource="http://web.resource.org/cc/PublicDomain" />
        <dc:language>en</dc:language>
      </cc:Work>
      <cc:License
         rdf:about="http://web.resource.org/cc/PublicDomain">
        <cc:permits
           rdf:resource="http://web.resource.org/cc/Reproduction" />
        <cc:permits
           rdf:resource="http://web.resource.org/cc/Distribution" />
        <cc:permits
           rdf:resource="http://web.resource.org/cc/DerivativeWorks" />
      </cc:License>
    </rdf:RDF>
  </metadata>
  <sodipodi:namedview
     bordercolor="#666666"
     borderopacity="1.0"
     id="base"
     inkscape:current-layer="svg2103"
     inkscape:cx="177.94274"
     inkscape:cy="254.9893"
     inkscape:pageopacity="0.0"
     inkscape:pageshadow="2"
     inkscape:window-height="1345"
     inkscape:window-width="2560"
     inkscape:window-x="1080"
     inkscape:window-y="172"
     inkscape:zoom="1.2279853"
     pagecolor="#ffffff"
     showgrid="false"
     inkscape:window-maximized="1" />
  <defs
     id="defs2105">
    <inkscape:perspective
       sodipodi:type="inkscape:persp3d"
       inkscape:vp_x="0 : 217.53 : 1"
       inkscape:vp_y="0 : 1000 : 0"
       inkscape:vp_z="355.02399 : 217.53 : 1"
       inkscape:persp3d-origin="177.51199 : 145.02 : 1"
       id="perspective23" />
    <marker
       id="ArrowEnd"
       markerHeight="3"
       markerUnits="strokeWidth"
       markerWidth="4"
       orient="auto"
       refX="0"
       refY="5"
       viewBox="0 0 10 10">
      <path
         d="M 0 0 L 10 5 L 0 10 z"
         id="path2108" />
    </marker>
    <marker
       id="ArrowStart"
       markerHeight="3"
       markerUnits="strokeWidth"
       markerWidth="4"
       orient="auto"
       refX="10"
       refY="5"
       viewBox="0 0 10 10">
      <path
         d="M 10 0 L 0 5 L 10 10 z"
         id="path2111" />
    </marker>
  </defs>
  <path
     style="fill:#303030;stroke:none;fill-opacity:1"
     id="path2115"
     d="M 179.237,0 C 138.982,0 83.388,11.502 60.384,21.087 C 37.38,30.672 22.044,40.257 17.252,64.219 L 0,197.06 L 0,380.105 L 29.712,380.105 L 29.712,408.81 C 29.712,443.81 80.93,443.81 80.93,408.81 L 80.93,380.105 L 175.487,380.105 L 175.787,380.105 L 274.094,380.105 L 274.094,408.81 C 274.094,443.81 325.312,443.81 325.312,408.81 L 325.312,380.105 L 355.024,380.105 L 355.024,197.06 L 337.772,64.219 C 332.98,40.257 317.644,30.672 294.64,21.087 C 271.636,11.502 216.042,0 175.787,0" />
  <g
     id="g2117"
     style="fill:#bababa;fill-opacity:1">
    <g
       id="g2119"
       style="fill:#bababa;fill-opacity:1">
      <g
         id="g2121"
         style="fill:#bababa;fill-opacity:1">
        <path
           style="fill:#bababa;stroke:none;fill-opacity:1"
           id="path2123"
           d="M 299.682,322.723 C 313.25,322.723 324.25,311.721 324.25,298.153 C 324.25,284.585 313.25,273.583 299.682,273.583 C 286.114,273.583 275.113,284.585 275.113,298.153 C 275.113,311.721 286.114,322.723 299.682,322.723 z" />
        <path
           style="fill:#bababa;stroke:none;fill-opacity:1"
           id="path2125"
           d="" />
      </g>
      <g
         id="g2127"
         style="fill:#bababa;fill-opacity:1">
        <path
           style="fill:#bababa;stroke:none;fill-opacity:1"
           id="path2129"
           d="M 55.342,322.723 C 41.774,322.723 30.774,311.721 30.774,298.153 C 30.774,284.585 41.774,273.583 55.342,273.583 C 68.91,273.583 79.911,284.585 79.911,298.153 C 79.911,311.721 68.91,322.723 55.342,322.723 z" />
        <path
           style="fill:#bababa;stroke:none;fill-opacity:1"
           id="path2131"
           d="" />
      </g>
    </g>
    <path
       style="fill:#bababa;stroke:none;fill-opacity:1"
       id="path2133"
       d="M 175.612,55.113 L 104.476,55.113 C 90.098,55.113 90.098,33.547 104.476,33.547 L 175.787,33.547 L 250.548,33.547 C 264.926,33.547 264.926,55.113 250.548,55.113 L 175.612,55.113 z" />
    <path
       style="fill:#bababa;stroke:none;fill-opacity:1"
       id="path2135"
       d="M 175.612,76.887 L 65.715,76.887 C 50.527,76.887 46.559,84.604 44.715,96.31 L 31.287,192.658 C 30.035,201.893 32.706,211.06 45.465,211.06 L 175.787,211.06 L 309.559,211.06 C 322.318,211.06 324.989,201.893 323.737,192.658 L 310.309,96.31 C 308.465,84.604 304.497,76.887 289.309,76.887 L 175.612,76.887 z" />
  </g>
  <path
     inkscape:connector-curvature="0"
     style="fill:#f44336;fill-opacity:1"
     d="m 246.70483,231.00539 -35.41061,10.09855 c -3.90773,1.04166 -6.18784,-1.55029 -7.30097,-5.2442 l -4.31346,-12.8239 -28.73982,39.73233 c -5.06657,7.43266 -9.56576,3.18412 -8.98909,-1.55375 l 1.86791,-31.25251 -11.41277,5.98953 c -1.45818,0.82485 -3.96798,0.76746 -5.60462,-1.32872 l -15.5925,-22.56488 -13.67069,22.70321 c -3.08565,5.0104 -3.95689,7.46855 -8.16043,5.58914 l -10.34556,-3.52171 6.37705,58.16836 c 0.30128,2.2562 -0.89782,4.67215 -3.07786,5.82624 l -12.738089,6.41043 c 13.051929,9.77682 25.567579,17.76181 38.526369,27.63779 1.14399,0.87183 1.1684,4.11685 -0.0367,5.2414 l -37.319705,32.31219 5.689946,5.37296 34.796719,-34.54973 c 1.19085,-1.13802 4.54348,-1.33901 5.46675,-0.25875 10.45862,12.23684 18.91473,24.05526 29.26834,36.38006 l 6.78865,-12.02843 c 1.22218,-2.0586 3.78065,-3.1909 6.16997,-2.9064 l 61.60012,6.02177 -3.72948,-9.7692 c -1.9903,-3.96937 0.61289,-4.79207 5.91889,-7.70581 l 24.04265,-12.90907 -23.89617,-14.72386 c -2.21985,-1.54546 -2.28062,-3.91544 -1.40711,-5.29239 l 6.34289,-10.77696 -33.09631,1.76387 c -5.0174,0.54452 -9.51659,-3.70402 -1.64543,-8.48833 l 42.07643,-27.13872 -13.58047,-4.07313 c -3.9119,-1.05119 -6.65671,-3.20421 -5.55358,-6.89423"
     id="path4" />
</svg>
